<svg width="6915" height="6915" viewBox="0 0 6915 6915" fill="none" xmlns="http://www.w3.org/2000/svg">
<mask id="path-1-outside-1_227_6" maskUnits="userSpaceOnUse" x="722" y="234" width="5472" height="6447" fill="black">
<rect fill="white" x="722" y="234" width="5472" height="6447"/>
<path fill-rule="evenodd" clip-rule="evenodd" d="M1258 765C1255.24 765 1253 767.239 1253 770V6144.83C1253 6147.59 1255.24 6149.83 1258 6149.83H2736.28C3329.99 6149.83 3831.06 6031.75 4241.58 5830.55C4542.31 5658.99 4688.21 5560.52 4890.63 5379.06C6439.97 3890.41 5626.61 765 2736.28 765H1258ZM3424.72 2085.69C3423.85 2084.04 3422.14 2083 3420.28 2083H2242.61C2238.83 2083 2236.42 2087.03 2238.2 2090.36L2795.07 3131.2C2796.85 3134.53 2794.44 3138.56 2790.66 3138.56H2086.86C2082.44 3138.56 2080.19 3143.89 2083.28 3147.05L4001.93 5113.74C4005.67 5117.58 4012.01 5113.64 4010.22 5108.58L3455.36 3538.54C3454.21 3535.29 3456.62 3531.88 3460.07 3531.88H4168.76C4172.51 3531.88 4174.93 3527.9 4173.2 3524.57L3424.72 2085.69Z"/>
</mask>
<path d="M1253 765L1471.42 614.056L1024.33 899.91L1253 765ZM3489.98 4556.61L3261.31 4691.52L3489.98 4556.61ZM3483.58 4554.6L3592.02 4796.95L3483.58 4554.6ZM2819.88 4695.7L2808.47 4430.45L2819.88 4695.7ZM2813.91 3410.69L3042.58 3275.78L2813.91 3410.69ZM2188.38 2115.9L2233.34 1854.23L2188.38 2115.9ZM2185.14 2113.82L2403.56 1962.87L2185.14 2113.82ZM4128.76 3852.93L4378.24 3943.76L4128.76 3852.93ZM4128.97 3856.93L3891.53 3975.74L4128.97 3856.93ZM4378.24 3943.76C4585.7 3373.92 4191.35 2867.35 3771.49 2540.2C3330.39 2196.49 2733.36 1940.16 2233.34 1854.23L2143.41 2377.56C2557.54 2448.72 3073.27 2669.31 3445.11 2959.05C3838.19 3265.34 3956.95 3548.75 3879.28 3762.1L4378.24 3943.76ZM5128.07 5260.25L4366.4 3738.12L3891.53 3975.74L4653.2 5497.87L5128.07 5260.25ZM2403.56 1962.87L1471.42 614.056L1034.58 915.944L1966.72 2264.76L2403.56 1962.87ZM3042.58 3275.78L1481.67 630.09L1024.33 899.91L2585.24 3545.6L3042.58 3275.78ZM2549.1 3413.23V4690.71H3080.1V3413.23H2549.1ZM4470.25 5695.64L3718.65 4421.7L3261.31 4691.52L4012.91 5965.46L4470.25 5695.64ZM2831.28 4960.96C3147.18 4947.37 3331.75 4913.41 3592.02 4796.95L3375.14 4312.26C3191.69 4394.35 3076.88 4418.9 2808.47 4430.45L2831.28 4960.96ZM3718.65 4421.7C3647.08 4300.4 3497.89 4257.33 3375.14 4312.26L3592.02 4796.95C3473.93 4849.79 3330.29 4808.43 3261.31 4691.52L3718.65 4421.7ZM2549.1 4690.71C2549.1 4849 2681.84 4967.39 2831.28 4960.96L2808.47 4430.45C2952.23 4424.26 3080.1 4538.12 3080.1 4690.71H2549.1ZM2585.24 3545.6C2561.58 3505.5 2549.1 3459.79 2549.1 3413.23H3080.1C3080.1 3364.88 3067.14 3317.42 3042.58 3275.78L2585.24 3545.6ZM2233.34 1854.23C2304.09 1866.39 2364.75 1906.72 2403.56 1962.87L1966.72 2264.76C2007.06 2323.13 2070.01 2364.95 2143.41 2377.56L2233.34 1854.23ZM3879.28 3762.1C3854.76 3829.45 3857.08 3906.9 3891.53 3975.74L4366.4 3738.12C4399.62 3804.5 4401.81 3879.01 4378.24 3943.76L3879.28 3762.1ZM4241.58 5830.55L4475.27 6307.36L4490.23 6300.03L4504.7 6291.78L4241.58 5830.55ZM4890.63 5379.06L5245.07 5774.46L5251.91 5768.33L5258.53 5761.96L4890.63 5379.06ZM4001.93 5113.74L3621.84 5484.54L4001.93 5113.74ZM4010.22 5108.58L3509.57 5285.52L4010.22 5108.58ZM2083.28 3147.05L1703.19 3517.86L2083.28 3147.05ZM2795.07 3131.2L2326.86 3381.7L2795.07 3131.2ZM3424.72 2085.69L2953.64 2330.74L3424.72 2085.69ZM2238.2 2090.36L1770 2340.85L2238.2 2090.36ZM4173.2 3524.57L3702.12 3769.61L4173.2 3524.57ZM3455.36 3538.54L3956.01 3361.61L3455.36 3538.54ZM1784 6144.83V770H722V6144.83H1784ZM2736.28 5618.83H1258V6680.83H2736.28V5618.83ZM4007.89 5353.74C3678.49 5515.17 3258.86 5618.83 2736.28 5618.83V6680.83C3401.12 6680.83 3983.62 6548.32 4475.27 6307.36L4007.89 5353.74ZM4536.2 4983.67C4371.15 5131.62 4259.61 5208.94 3978.46 5369.32L4504.7 6291.78C4825.02 6109.04 5005.27 5989.41 5245.07 5774.46L4536.2 4983.67ZM2736.28 1296C3960.23 1296 4689.84 1940.58 4982.53 2703.9C5286.35 3496.23 5125.55 4416.96 4522.73 4996.17L5258.53 5761.96C6205.05 4852.51 6412.24 3466.21 5974.13 2323.67C5524.9 1152.13 4402.66 234 2736.28 234V1296ZM1258 1296H2736.28V234H1258V1296ZM2242.61 2614H3420.28V1552H2242.61V2614ZM3263.27 2880.71L2706.4 1839.86L1770 2340.85L2326.86 3381.7L3263.27 2880.71ZM2086.86 3669.56H2790.66V2607.56H2086.86V3669.56ZM4382.02 4742.94L2463.37 2776.25L1703.19 3517.86L3621.84 5484.54L4382.02 4742.94ZM2954.7 3715.48L3509.57 5285.52L4510.88 4931.65L3956.01 3361.61L2954.7 3715.48ZM4168.76 3000.88H3460.07V4062.88H4168.76V3000.88ZM2953.64 2330.74L3702.12 3769.61L4644.27 3279.52L3895.79 1840.65L2953.64 2330.74ZM3621.84 5484.54C4023.01 5895.76 4702.29 5473.26 4510.88 4931.65L3509.57 5285.52C3321.73 4754.01 3988.33 4339.39 4382.02 4742.94L3621.84 5484.54ZM2086.86 2607.56C1612.55 2607.56 1371.95 3178.31 1703.19 3517.86L2463.37 2776.25C2788.44 3109.46 2552.33 3669.56 2086.86 3669.56V2607.56ZM2326.86 3381.7C2139.4 3031.3 2393.27 2607.56 2790.66 2607.56V3669.56C3195.6 3669.56 3454.3 3237.76 3263.27 2880.71L2326.86 3381.7ZM3420.28 2614C3224.08 2614 3044.19 2504.8 2953.64 2330.74L3895.79 1840.65C3803.52 1663.27 3620.21 1552 3420.28 1552V2614ZM2242.61 1552C1837.66 1552 1578.97 1983.8 1770 2340.85L2706.4 1839.86C2893.87 2190.26 2640 2614 2242.61 2614V1552ZM4168.76 4062.88C4570.97 4062.88 4829.89 3636.34 4644.27 3279.52L3702.12 3769.61C3519.97 3419.45 3774.05 3000.88 4168.76 3000.88V4062.88ZM1784 770C1784 1060.51 1548.49 1296 1258 1296V234C961.985 234 722 473.966 722 770H1784ZM3956.01 3361.61C4076.97 3703.87 3823.08 4062.88 3460.07 4062.88V3000.88C3090.16 3000.88 2831.44 3366.7 2954.7 3715.48L3956.01 3361.61ZM722 6144.83C722 6440.85 961.971 6680.83 1258 6680.83V5618.83C1548.51 5618.83 1784 5854.33 1784 6144.83H722Z" fill="black" mask="url(#path-1-outside-1_227_6)"/>
</svg>
